<svg xmlns="http://www.w3.org/2000/svg" viewBox="33.35 38.38 673.42 417.68"><path d="M200.946 395.582c-29.991-.22-72.465 16.989-89.292 23.661-4.788 1.899-17.392 18.814-25.217 35.257-3.499 7.354-29.28 82.156-29.28 82.156s-12.144 57.84-10 92.125C49.298 663.067 70 694.5 70 694.5s17.557 17.1 27 20.688c11.302 4.293 31.854 6.91 43 5.03 25.866-4.358 98.438-41.294 103.438-43.437 5-2.143 9.917-4.1 14.687-5.312 3.52 3.343 30.116 5.63 43.688 1.343 13.57-4.285 20.917-7.946 27.218-13.25 11.761-.637 32.973-.6 52.406-.5 19.394-.1 40.545-.136 52.282.5 6.288 5.303 13.612 8.966 27.156 13.25 13.544 4.285 40.113 1.999 43.625-1.343 4.76 1.212 9.635 3.17 14.625 5.312 4.99 2.143 77.436 39.08 103.25 43.438 11.123 1.878 31.627-.77 42.906-5.063 9.424-3.586 26.938-20.656 26.938-20.656s20.674-31.41 22.812-65.688c2.139-34.277-9.968-92.125-9.968-92.125s-25.727-74.772-29.22-82.125c-7.808-16.44-21.038-34.912-25.816-36.81-12.28-4.878-36.23-16.619-63.119-20.787-16.694-2.587-36.596-2.9-50.752 1.724-9.547 3.12-17.962 11.176-24.281 14.777-7.38 4.205-37.514 22.432-54.622 26.717-24.915 4.167-50.53 3.976-75.563 3.318 0 0-58.828.684-75.971-3.602s-40.016-19.758-47.411-23.964c-6.332-3.602-10.845-7.526-24.955-14.165-10.907-6.361-22.634-6.188-32.407-6.188z" style="fill:#c7c7c7;fill-opacity:1;stroke:#000;stroke-width:1px;stroke-linecap:butt;stroke-linejoin:miter;stroke-opacity:1" transform="translate(-11.036 -267.297)"/><path d="M356.836 629.108c0 33.613-33.297 60.862-74.372 60.862s-74.373-27.249-74.373-60.862 33.298-60.861 74.373-60.861 74.372 27.248 74.372 60.861z" transform="translate(-13.056 -285.48)" style="fill:#e1e1e1;fill-opacity:1;stroke:#000;stroke-width:.99900001;stroke-miterlimit:4;stroke-opacity:1"/><path d="M322.5 617.362c0 26.825-27.183 48.572-60.714 48.572-33.532 0-60.715-21.747-60.715-48.572 0-26.825 27.183-48.571 60.715-48.571 33.531 0 60.714 21.746 60.714 48.571z" transform="matrix(1.1475 0 0 1.1592 -32.122 -366.424)" style="fill:#c9c9c9;fill-opacity:1;stroke:#000;stroke-width:.99900001;stroke-miterlimit:4;stroke-opacity:1"/><path d="M201.313 340.719c-12.736.278-24.74 2.676-28.844 3.781-6.566 1.768-10.344 5.563-10.344 5.563l-32.063 30.03s-5.043 5.189-5.549 5.82c-6.49 8.114-7.953 8.203-8.964 10.223-1.01 2.02-4.314 5.43-5.955 7.829-1.038 1.517-3.766 6.46-5.281 7.723-1.516 1.262-21.47 52.093-21.47 52.093s23.016-24.473 38.04-30.87c32.521-13.847 70.52-19.707 105.232-13.043 27.173 5.216 46.125 32.426 72.74 39.989 26.056 7.402 54.068 4.3 81.154 4.143 29.584-.172 60.098 2.444 88.58-5.559 26.584-7.469 46.158-33.463 73.284-38.631 35.9-6.84 76.518-4.886 108.989 11.882 12.734 6.576 28.544 32.152 28.544 32.152S659.512 412.98 658 411.719c-1.133-1.894-4.02-5.672-4.524-7.439-.504-1.767-6.968-7.198-7.976-9.218-1.008-2.02-1.023-.238-7.67-8.203a1859.212 1859.212 0 0 1-5.549-6.703l-32-30.031s-3.79-3.795-10.344-5.563c-6.552-1.767-33.231-6.699-50.906-1.25-13.664 4.213-15.625 6.813-15.625 6.813s-7.549 9.358-13.094 11.125c-5.544 1.767-30.483 18.42-48.125 20.187-17.642 1.768-34.795 4.547-40.843 3.032-6.049-1.515-39.907-1.094-39.907-1.094v-.063s-33.939-.421-40 1.094c-6.06 1.515-23.228-1.263-40.906-3.031-17.677-1.768-42.694-18.451-48.25-20.219-5.556-1.768-13.125-11.094-13.125-11.094s-1.885-3.095-15.656-6.812c-6.709-1.81-14.546-2.698-22.188-2.531z" style="fill:#dadada;fill-opacity:1;stroke:#000;stroke-width:1px;stroke-linecap:butt;stroke-linejoin:miter;stroke-opacity:1" transform="translate(-11.036 -267.297)"/><path d="m177.637 334.645 45.482 12.134-12.358 46.462-42.446-10.705z" style="fill:#000;fill-opacity:1;stroke:#000;stroke-width:.97984231;stroke-miterlimit:4;stroke-opacity:1" transform="translate(-11.036 -267.297)"/><path d="M168.75 379.862s6.429-39.464 6.607-42.143c.179-2.678 2.143-19.107 2.679-21.428.535-2.322 6.785-7.679 9.107-7.679h19.464s11.964 1.964 12.322 10.357c.357 8.393.535 17.322.535 17.322l-3.214 41.071z" style="fill:#f8f8f8;fill-opacity:1;stroke:#000;stroke-width:1px;stroke-linecap:butt;stroke-linejoin:miter;stroke-opacity:1" transform="translate(-11.036 -267.297)"/><path d="M563.906 395.094c-10.005-.05-19.787.992-27.75 3.594-9.547 3.118-17.962 11.18-24.281 14.78-7.38 4.206-37.517 22.435-54.625 26.72-24.915 4.167-50.53 3.97-75.563 3.312 0 0-58.825.692-75.968-3.594-17.143-4.285-40.011-19.762-47.406-23.969-6.332-3.601-10.766-7.42-24.876-14.059-10.907-6.36-22.727-6.284-32.5-6.284-29.991-.22-72.454 15.847-89.28 22.52-4.704 1.865-16.933 19.347-24.782 35.511-2.3 5.803-4.031 10.156-4.031 10.156s23.006-24.478 38.031-30.875c32.52-13.846 70.538-19.695 105.25-13.031 27.173 5.216 46.103 32.407 72.719 39.969 26.055 7.403 54.07 4.314 81.156 4.156 29.584-.172 60.112 2.44 88.594-5.563 26.585-7.469 46.154-33.456 73.281-38.625 35.899-6.84 76.529-4.892 109 11.875 12.734 6.576 28.531 32.157 28.531 32.157l-4-10.125c-7.854-16.22-20.679-34.104-25.375-35.969-12.279-4.878-36.236-16.614-63.125-20.781-7.304-1.132-15.218-1.837-23-1.875z" style="fill:#f3f3f3;fill-opacity:.45212767;stroke:#000;stroke-width:1px;stroke-linecap:butt;stroke-linejoin:miter;stroke-opacity:1" transform="translate(-11.036 -267.297)"/><path d="m110.893 411.826 1.071-10.535s-.714-9.643 13.572-15.715c14.285-6.071 26.428-13.75 43.035-17.142 16.608-3.393 26.608-4.286 34.643-4.108 8.036.179 20.715 1.072 22.143 1.608 1.429.535 3.572 6.964 5.357 7.321 1.786.357 6.25 1.607 6.25 1.607l.536 12.679-4.107 14.107s-12.857-8.929-46.607-4.286c-33.75 4.643-44.286 9.822-44.286 9.822s-30.179 11.785-31.25 10.892c-1.071-.892-.357-6.25-.357-6.25z" style="fill:#f1f1f1;fill-opacity:1;stroke:#000;stroke-width:1px;stroke-linecap:butt;stroke-linejoin:miter;stroke-opacity:1" transform="translate(-11.036 -267.297)"/><path d="M434.201 474.967h45.133v48.09H434.2z" transform="rotate(-15.07 -1015.93 -91.932)" style="fill:#000;fill-opacity:1;stroke:#000;stroke-width:.99900001;stroke-miterlimit:4;stroke-opacity:1"/><path d="M597.214 379.423s-6.416-39.455-6.594-42.133c-.178-2.678-2.139-19.103-2.673-21.424-.535-2.32-6.772-7.677-9.09-7.677h-19.424s-11.94 1.964-12.297 10.355c-.356 8.39-.534 17.317-.534 17.317l3.207 41.062z" style="fill:#f8f8f8;fill-opacity:1;stroke:#000;stroke-width:.99887353px;stroke-linecap:butt;stroke-linejoin:miter;stroke-opacity:1" transform="translate(-11.036 -267.297)"/><path d="m651.418 411.884-1.069-10.533s.713-9.64-13.544-15.71-26.375-13.747-42.949-17.14c-16.573-3.391-26.553-4.284-34.573-4.105-8.02.178-20.672 1.07-22.098 1.606-1.426.536-3.564 6.963-5.346 7.32-1.782.357-6.238 1.607-6.238 1.607l-.534 12.675 4.099 14.104s12.83-8.926 46.513-4.284c33.682 4.641 44.196 9.819 44.196 9.819s30.118 11.783 31.187 10.89c1.07-.893.356-6.249.356-6.249z" style="fill:#f1f1f1;fill-opacity:1;stroke:#000;stroke-width:.99900001;stroke-linecap:butt;stroke-linejoin:miter;stroke-miterlimit:4;stroke-opacity:1;stroke-dasharray:none" transform="translate(-11.036 -267.297)"/><path d="M555.714 521.648c0 9.665-8.474 17.5-18.928 17.5s-18.929-7.835-18.929-17.5 8.475-17.5 18.929-17.5c10.454 0 18.928 7.835 18.928 17.5z" transform="matrix(1.26514 0 0 1.19516 -157.955 -376.4)" style="fill:#303030;fill-opacity:1;stroke:#000;stroke-width:.81242597;stroke-miterlimit:4;stroke-opacity:1"/><path d="M555.714 521.648c0 9.665-8.474 17.5-18.928 17.5s-18.929-7.835-18.929-17.5 8.475-17.5 18.929-17.5c10.454 0 18.928 7.835 18.928 17.5z" transform="matrix(1.15305 0 0 1 -97.257 -271.225)" style="fill:#505050;fill-opacity:1;stroke:#000;stroke-width:.93034047;stroke-miterlimit:4;stroke-opacity:1"/><path d="M608.393 565.487c0 8.334-8.275 15.09-18.482 15.09-10.208 0-18.482-6.756-18.482-15.09 0-8.333 8.274-15.09 18.482-15.09 10.207 0 18.482 6.757 18.482 15.09z" transform="matrix(1.34918 -.20807 .2009 1.30268 -336.98 -324.58)" style="fill:#737373;fill-opacity:1;stroke:#000;stroke-width:.99900001;stroke-miterlimit:4;stroke-opacity:1"/><path d="M608.393 565.487c0 8.334-8.275 15.09-18.482 15.09-10.208 0-18.482-6.756-18.482-15.09 0-8.333 8.274-15.09 18.482-15.09 10.207 0 18.482 6.757 18.482 15.09z" transform="matrix(1.19056 -.20374 .20459 1.19553 -243.849 -262.4)" style="fill:#a6a6a6;fill-opacity:1;stroke:#000;stroke-width:.99900001;stroke-miterlimit:4;stroke-opacity:1"/><path d="M619.643 473.344c0 10.405-9.874 18.84-22.054 18.84-12.18 0-22.053-8.435-22.053-18.84 0-10.404 9.873-18.839 22.053-18.839 12.18 0 22.054 8.435 22.054 18.84z" transform="matrix(1.14763 -.28802 .28769 1.1463 -243.464 -170.501)" style="fill:#bababa;fill-opacity:1;stroke:#000;stroke-width:.99900001;stroke-miterlimit:4;stroke-opacity:1"/><path d="M619.643 473.344c0 10.405-9.874 18.84-22.054 18.84-12.18 0-22.053-8.435-22.053-18.84 0-10.404 9.873-18.839 22.053-18.839 12.18 0 22.054 8.435 22.054 18.84z" transform="matrix(1.011 -.24441 .25543 1.0566 -145.594 -149.382)" style="fill:#dfdfdf;fill-opacity:1;stroke:#000;stroke-width:.99900001;stroke-miterlimit:4;stroke-opacity:1"/><path d="M685 538.612c0 9.37-8.954 16.964-20 16.964s-20-7.595-20-16.964 8.954-16.964 20-16.964 20 7.595 20 16.964z" transform="matrix(1.17279 -.491 .4397 1.13485 -385.86 -41.826)" style="fill:#2c2c2c;fill-opacity:1;stroke:#000;stroke-width:.99900001;stroke-miterlimit:4;stroke-opacity:1"/><path d="M685 538.612c0 9.37-8.954 16.964-20 16.964s-20-7.595-20-16.964 8.954-16.964 20-16.964 20 7.595 20 16.964z" transform="matrix(1.02139 -.43108 .38295 .99637 -253.104 -4.073)" style="fill:#444;fill-opacity:1;stroke:#000;stroke-width:.99900001;stroke-miterlimit:4;stroke-opacity:1"/><path d="M339.916 620.522c0 26.779-26.344 48.487-58.841 48.487s-58.841-21.708-58.841-48.487c0-26.779 26.344-48.487 58.84-48.487 32.498 0 58.842 21.708 58.842 48.487z" transform="matrix(1.02356 0 0 1 -19.807 -270.327)" style="fill:#181818;fill-opacity:1;stroke:#000;stroke-width:.99900001;stroke-miterlimit:4;stroke-opacity:1"/><path d="M323.929 622.005c0 19.823-20.427 35.893-45.625 35.893s-45.625-16.07-45.625-35.893 20.427-35.893 45.625-35.893 45.625 16.07 45.625 35.893z" transform="matrix(1.22748 0 0 1.28834 -74.1 -449.46)" style="fill:#999;fill-opacity:1;stroke:#000;stroke-width:.99900001;stroke-miterlimit:4;stroke-opacity:1"/><path d="M323.929 622.005c0 19.823-20.427 35.893-45.625 35.893s-45.625-16.07-45.625-35.893 20.427-35.893 45.625-35.893 45.625 16.07 45.625 35.893z" transform="matrix(1.1728 0 0 1.16235 -59.05 -367.28)" style="fill:#848484;fill-opacity:1;stroke:#000;stroke-width:.99900001;stroke-miterlimit:4;stroke-opacity:1"/><path d="M415.09 517.675c0 12.845-13.792 23.259-30.804 23.259-17.013 0-30.804-10.414-30.804-23.26 0-12.845 13.791-23.258 30.804-23.258 17.012 0 30.803 10.413 30.803 23.259z" transform="matrix(1.336 0 0 1.43872 -142.323 -497.746)" style="fill:#353535;fill-opacity:1;stroke:#000;stroke-width:.99900001;stroke-miterlimit:4;stroke-opacity:1"/><path d="M399.554 521.068c0 3.575-3.718 6.473-8.304 6.473s-8.304-2.898-8.304-6.473c0-3.575 3.718-6.474 8.304-6.474s8.304 2.899 8.304 6.474z" style="fill:#cacaca;fill-opacity:1;stroke:#000;stroke-width:.24093071;stroke-miterlimit:4;stroke-opacity:1" transform="matrix(4.07213 0 0 4.22207 -1222.04 -1953.124)"/><path d="m278.4 581 10.67.505s3.22 1.263 3.788 4.42c.417 2.32 2.904 14.141 3.661 14.773.758.631 4.167 6.566 7.198 6.945 3.03.378 23.36 3.283 24.622 4.419 1.263 1.136 3.157 6.06 3.157 6.06l.252 12.249s-.757 3.788-1.894 4.42c-1.136.63-22.097 2.651-22.097 2.651s-6.313 1.515-7.45 5.177c-1.136 3.662-3.409 18.814-4.419 19.824-1.01 1.01-2.4 3.157-5.303 3.536-2.904.379-17.173.631-17.173.631s-5.303-1.136-6.566-2.904-4.42-17.425-4.42-17.425-2.02-5.556-8.333-7.197c-6.313-1.642-18.183-.253-21.718-1.895-3.536-1.641-5.935-4.671-6.187-7.323-.253-2.652-1.39-11.87-.884-12.627.505-.758 2.904-5.303 4.293-5.43 1.389-.126 20.455-2.272 22.602-3.914 2.147-1.641 6.945-5.43 7.197-7.955.253-2.525 1.36-16.723 2.336-16.73.803-.73 1.477-.94 2.1-1.27 1.048-.555 3.792-.7 7.307-.75 4.42-.064 7.26-.19 7.26-.19z" style="fill:#999;fill-opacity:1;stroke:#000;stroke-width:1px;stroke-linecap:butt;stroke-linejoin:miter;stroke-opacity:1" transform="translate(-11.036 -267.297)"/><path d="M307.752 503.994s-4.706-.145-5.843-.018c-1.136.126-11.3 1.262-11.68 12.058-.378 10.796 12.015 12.95 12.015 12.95l5.474.111 5.763.019s12.609-1.715 12.798-12.638c.19-10.922-13.005-12.437-13.005-12.437zM456.502 504.53s-4.706-.145-5.843-.019c-1.136.127-11.3 1.263-11.68 12.059-.378 10.796 12.015 12.95 12.015 12.95l5.474.111 5.763.019s12.609-1.716 12.798-12.638c.19-10.922-13.005-12.438-13.005-12.438zM380.683 563.097s-4.706-.144-5.842-.018c-1.137.126-11.301 1.263-11.68 12.059-.379 10.796 12.014 12.95 12.014 12.95l5.474.11 5.764.02s12.608-1.716 12.798-12.638c.189-10.923-13.006-12.438-13.006-12.438z" style="fill:#f1f1f1;fill-opacity:1;stroke:#000;stroke-width:1px;stroke-linecap:butt;stroke-linejoin:miter;stroke-opacity:1" transform="translate(-11.036 -267.297)"/><path d="M536.896 610.042c0 26.709-32.958 48.36-73.615 48.36-40.656 0-73.615-21.651-73.615-48.36 0-26.71 32.959-48.361 73.615-48.361 40.657 0 73.615 21.652 73.615 48.36z" transform="matrix(1 0 0 1.07505 2.349 -317.785)" style="fill:#dadada;fill-opacity:1;stroke:#000;stroke-width:.99900001;stroke-miterlimit:4;stroke-opacity:1"/><path d="M525.179 624.594c0 20.366-19.108 36.875-42.679 36.875-23.57 0-42.679-16.51-42.679-36.875S458.93 587.72 482.5 587.72c23.57 0 42.679 16.51 42.679 36.875z" transform="matrix(1.10784 0 0 1.06931 -68.079 -314.998)" style="fill:#181818;fill-opacity:1;stroke:#000;stroke-width:.99900001;stroke-miterlimit:4;stroke-opacity:1"/><path d="M516.188 646.28c0 18.272-17.582 33.083-39.27 33.083-21.688 0-39.27-14.811-39.27-33.082s17.582-33.083 39.27-33.083c21.688 0 39.27 14.812 39.27 33.083z" transform="matrix(1.09908 0 0 1.09064 -58.178 -352.273)" style="fill:#757575;fill-opacity:1;stroke:#000;stroke-width:.99900001;stroke-miterlimit:4;stroke-opacity:1"/><path d="M202.857 563.79c0 23.078-24.944 41.786-55.714 41.786s-55.714-18.708-55.714-41.785c0-23.078 24.944-41.786 55.714-41.786s55.714 18.708 55.714 41.786z" transform="matrix(1.29112 .25075 -.24114 1.34255 110.996 -550.21)" style="fill:#dedede;fill-opacity:1;stroke:#000;stroke-width:.99900001;stroke-miterlimit:4;stroke-opacity:1"/><path d="M223.571 523.434c0 18.54-18.068 33.571-40.357 33.571-22.288 0-40.357-15.03-40.357-33.571 0-18.541 18.069-33.572 40.357-33.572 22.289 0 40.357 15.03 40.357 33.572z" transform="matrix(1.17862 0 0 1.18 -49.573 -361.9)" style="fill:#181818;fill-opacity:1;stroke:#000;stroke-width:.99900001;stroke-miterlimit:4;stroke-opacity:1"/><path d="M516.188 646.28c0 18.272-17.582 33.083-39.27 33.083-21.688 0-39.27-14.811-39.27-33.082s17.582-33.083 39.27-33.083c21.688 0 39.27 14.812 39.27 33.083z" transform="matrix(1.09908 0 0 1.09064 -357.464 -449.416)" style="fill:#757575;fill-opacity:1;stroke:#000;stroke-width:.99900001;stroke-miterlimit:4;stroke-opacity:1"/><path d="M207.143 553.612c0 14.99-16.79 27.143-37.5 27.143s-37.5-12.152-37.5-27.143c0-14.99 16.79-27.143 37.5-27.143s37.5 12.153 37.5 27.143z" transform="matrix(1.21465 0 0 1.44197 -43.176 -529.98)" style="fill:#868686;fill-opacity:1;stroke:#000;stroke-width:.99900001;stroke-miterlimit:4;stroke-opacity:1"/><path d="M519.286 638.344c0 17.999-18.469 32.59-41.25 32.59-22.782 0-41.25-14.591-41.25-32.59 0-17.998 18.468-32.589 41.25-32.589 22.781 0 41.25 14.59 41.25 32.59z" transform="matrix(1.0685 0 0 1.13312 -44.12 -353.232)" style="fill:#868686;fill-opacity:1;stroke:#000;stroke-width:.99900001;stroke-miterlimit:4;stroke-opacity:1"/><path d="M207.143 553.612c0 14.99-16.79 27.143-37.5 27.143s-37.5-12.152-37.5-27.143c0-14.99 16.79-27.143 37.5-27.143s37.5 12.153 37.5 27.143z" transform="matrix(1.16973 0 0 1.3433 -35.453 -473.766)" style="fill:#999;fill-opacity:1;stroke:#000;stroke-width:.99900001;stroke-miterlimit:4;stroke-opacity:1"/><path d="M207.143 553.612c0 14.99-16.79 27.143-37.5 27.143s-37.5-12.152-37.5-27.143c0-14.99 16.79-27.143 37.5-27.143s37.5 12.153 37.5 27.143z" transform="matrix(1.14043 0 0 1.2848 273.285 -340.006)" style="fill:#999;fill-opacity:1;stroke:#000;stroke-width:.99900001;stroke-miterlimit:4;stroke-opacity:1"/><path d="M171.347 514.961c0 .907-.876 1.641-1.957 1.641s-1.957-.734-1.957-1.641.876-1.641 1.957-1.641c1.08 0 1.957.734 1.957 1.641z" transform="translate(-8.005 -269.317)" style="fill:#b0b0b0;fill-opacity:1;stroke:#000;stroke-width:.99900001;stroke-miterlimit:4;stroke-opacity:1"/><path d="M171.347 514.961c0 .907-.876 1.641-1.957 1.641s-1.957-.734-1.957-1.641.876-1.641 1.957-1.641c1.08 0 1.957.734 1.957 1.641z" transform="translate(25.33 -242.422)" style="fill:#b0b0b0;fill-opacity:1;stroke:#000;stroke-width:.99900001;stroke-miterlimit:4;stroke-opacity:1"/><path d="M171.347 514.961c0 .907-.876 1.641-1.957 1.641s-1.957-.734-1.957-1.641.876-1.641 1.957-1.641c1.08 0 1.957.734 1.957 1.641z" transform="translate(-7.753 -218.304)" style="fill:#b0b0b0;fill-opacity:1;stroke:#000;stroke-width:.99900001;stroke-miterlimit:4;stroke-opacity:1"/><path d="M171.347 514.961c0 .907-.876 1.641-1.957 1.641s-1.957-.734-1.957-1.641.876-1.641 1.957-1.641c1.08 0 1.957.734 1.957 1.641z" transform="translate(-38.436 -244.19)" style="fill:#b0b0b0;fill-opacity:1;stroke:#000;stroke-width:.99900001;stroke-miterlimit:4;stroke-opacity:1"/><path d="M171.347 514.961c0 .907-.876 1.641-1.957 1.641s-1.957-.734-1.957-1.641.876-1.641 1.957-1.641c1.08 0 1.957.734 1.957 1.641z" transform="translate(298.07 -165.019)" style="fill:#afafaf;fill-opacity:1;stroke:#000;stroke-width:.99900001;stroke-miterlimit:4;stroke-opacity:1"/><path d="M171.347 514.961c0 .907-.876 1.641-1.957 1.641s-1.957-.734-1.957-1.641.876-1.641 1.957-1.641c1.08 0 1.957.734 1.957 1.641z" transform="translate(328.25 -140.775)" style="fill:#979797;fill-opacity:1;stroke:#000;stroke-width:.99900001;stroke-miterlimit:4;stroke-opacity:1"/><path d="M171.347 514.961c0 .907-.876 1.641-1.957 1.641s-1.957-.734-1.957-1.641.876-1.641 1.957-1.641c1.08 0 1.957.734 1.957 1.641z" transform="translate(297.313 -119.057)" style="fill:#b0b0b0;fill-opacity:1;stroke:#000;stroke-width:.99900001;stroke-miterlimit:4;stroke-opacity:1"/><path d="M171.347 514.961c0 .907-.876 1.641-1.957 1.641s-1.957-.734-1.957-1.641.876-1.641 1.957-1.641c1.08 0 1.957.734 1.957 1.641z" transform="translate(268.65 -142.417)" style="fill:#b0b0b0;fill-opacity:1;stroke:#000;stroke-width:.99900001;stroke-miterlimit:4;stroke-opacity:1"/><path d="M111.964 401.29s-.714-9.642 13.572-15.714c14.285-6.071 26.428-13.75 43.035-17.142 16.608-3.393 26.608-4.286 34.643-4.108 8.036.179 20.715 1.072 22.143 1.608 1.429.535.519 3.287.054 5.048-.36 1.367-1.2 2.996-1.2 2.996l-.853 3.714-.193 3.248s-4.229-4.454-37.768 1.522c-31.317 5.58-32.038 6.034-32.038 6.034s-11.49 3.073-17.865 5.842c-1.28.556-17.455 5.268-17.455 5.268-2.254.558-4.348 1.59-6.075 1.685z" style="fill:#f8f8f8;fill-opacity:1;stroke:#000;stroke-width:1px;stroke-linecap:butt;stroke-linejoin:miter;stroke-opacity:1" transform="translate(-11.036 -267.297)"/><path d="m645.972 401.617 4.377-.266s.713-9.64-13.544-15.71-26.375-13.747-42.949-17.14c-16.573-3.391-26.553-4.284-34.573-4.105-8.02.178-18.942.939-20.368 1.475.663 3.41.463 7.015 1.241 9.77l.885 4.728s2.474-2.766 36.156 1.876c33.682 4.642 36.607 6.605 36.607 6.605s10.316 4.099 11.633 4.55c3.123 1.072 20.535 8.217 20.535 8.217z" style="fill:#f8f8f8;fill-opacity:1;stroke:#000;stroke-width:.99900001;stroke-linecap:butt;stroke-linejoin:miter;stroke-miterlimit:4;stroke-opacity:1;stroke-dasharray:none" transform="translate(-11.036 -267.297)"/><path d="m278.402 584.264 10.27.486s3.098 1.215 3.645 4.253c.402 2.235 2.795 13.611 3.524 14.22.73.607 4.01 6.318 6.927 6.683 2.917.365 22.482 3.16 23.698 4.253 1.215 1.094 3.038 5.834 3.038 5.834l.243 11.788s-.73 3.646-1.823 4.253c-1.094.608-21.267 2.552-21.267 2.552s-6.076 1.458-7.17 4.983c-1.094 3.524-3.281 18.107-4.254 19.08-.972.972-2.309 3.038-5.104 3.402-2.795.365-16.527.608-16.527.608s-5.104-1.094-6.32-2.795c-1.215-1.702-4.253-16.771-4.253-16.771s-1.944-5.347-8.02-6.927c-6.077-1.58-17.5-.243-20.903-1.823-3.403-1.58-5.712-4.496-5.955-7.048-.243-2.552-1.337-11.424-.85-12.153.485-.73 2.794-5.104 4.131-5.226 1.337-.121 19.687-2.187 21.753-3.767 2.066-1.58 6.684-5.226 6.927-7.656.243-2.43 1.308-16.095 2.249-16.102.772-.702 1.42-.905 2.02-1.222 1.009-.534 3.65-.674 7.033-.723 4.254-.06 6.988-.182 6.988-.182z" style="fill:#868686;fill-opacity:1;stroke:#000;stroke-width:.96243834px;stroke-linecap:butt;stroke-linejoin:miter;stroke-opacity:1" transform="translate(-11.036 -267.297)"/></svg>